<?xml version="1.0" encoding="utf-8"?>
<!-- Generator: Adobe Illustrator 19.1.0, SVG Export Plug-In . SVG Version: 6.00 Build 0)  -->
<svg version="1.1" id="Layer_1" xmlns="http://www.w3.org/2000/svg" xmlns:xlink="http://www.w3.org/1999/xlink" x="0px" y="0px"
	 width="170.6px" height="62.2px" viewBox="-260.4 208.7 170.6 62.2" style="enable-background:new -260.4 208.7 170.6 62.2;"
	 xml:space="preserve">
<style type="text/css">
	.st0{fill:#EAE4DA;}
	.st1{fill:#F4EFE9;}
	.st2{fill:#FFFFFF;}
	.st3{fill:#D6D3D0;}
</style>
<title>logo-tag</title>
<path class="st0" d="M-93,215.6c1.1-2.2,2.2-4.5,3.2-6.8c-0.6,2.3-1.3,4.6-2,6.8H-93z"/>
<path class="st0" d="M-93,215.6h1.2c-3.7,12-9.7,23.1-17.6,32.8c0.3-3.4,1-7.5,1.7-11.8C-101.8,230.3-96.9,223.2-93,215.6z"/>
<path class="st0" d="M-107.6,236.6c-0.8,4.3-1.4,8.5-1.7,11.8l-0.1,0.1c-0.2-2.6-0.6-5.7-1-9C-109.5,238.5-108.5,237.6-107.6,236.6z
	"/>
<path class="st0" d="M-110.4,239.5c0.4,3.3,0.8,6.4,1,9c-3.1,3.7-6.5,7.1-10.3,10.1l-2.3-9.8C-117.9,246.1-114,243-110.4,239.5z"/>
<path class="st0" d="M-122,248.8l2.3,9.8c-2.1,1.7-4.2,3.2-6.4,4.6l-2.5-10.5C-126.4,251.5-124.2,250.2-122,248.8z"/>
<path class="st1" d="M-126.2,263.2l1.9,7.8h-21.9C-139.1,269.7-132.3,267-126.2,263.2z"/>
<path class="st0" d="M-128.6,252.7l2.5,10.5c-6.1,3.8-12.9,6.5-20,7.8h-20.6c-20.5-3.7-39.5-18.2-53.3-39.7c0.2-0.1,0.4-0.1,0.6-0.2
	c18.7,20.9,43.7,32.2,69.4,28.5c6.8-1,13.5-3,19.7-6c0.2,0.2,0.5,0.5,0.7,0.8c-0.2-0.3-0.4-0.6-0.6-0.8
	C-129.7,253.3-129.2,253-128.6,252.7z"/>
<path class="st2" d="M-129.6,254.4c-0.2-0.3-0.5-0.5-0.7-0.8c0,0,0.1-0.1,0.1-0.1C-130,253.8-129.8,254.1-129.6,254.4z"/>
<path class="st0" d="M-130.2,253.5c0,0-0.1,0-0.1,0.1c-18.6-20.4-44.2-31.5-70.7-27.7c-6.3,0.9-12.5,2.7-18.3,5.2
	c-0.9-1.1-1.9-2.1-2.8-3.2c0.7,1.2,1.5,2.3,2.2,3.5h-0.1c-1,0.5-2.1,0.9-3.1,1.5c-11.3,5.7-21,14-28.5,24.2
	c-0.1,0.2-0.3,0.4-0.5,0.6c-0.5,0.6-1,1.3-1.4,2c-2,2.9-3.9,5.9-5.6,9l-0.1-2.1c9.7-26.4,28.9-45.9,53.3-50.8h24.3
	C-161.6,219.8-143.2,233.6-130.2,253.5z"/>
<path class="st2" d="M-166.7,271h20.5c-0.7,0.1-1.4,0.3-2.2,0.4C-154.5,272.3-160.7,272.1-166.7,271z"/>
<path class="st1" d="M-130.3,253.6c-6.2,3-12.9,5-19.7,6c-25.7,3.7-50.7-7.7-69.4-28.5c5.9-2.5,12-4.3,18.3-5.2
	C-174.6,222.1-148.9,233.2-130.3,253.6z"/>
<path class="st1" d="M-166.8,271h-93.6c0.4-0.9,0.8-1.7,1.3-2.5v0.1c1.7-3.1,3.5-6.1,5.6-9c0.5-0.7,0.9-1.3,1.4-2
	c0.1-0.2,0.3-0.4,0.5-0.6c7.6-10.1,17.3-18.3,28.5-24.1c1-0.5,2-1,3.1-1.5C-206.3,252.8-187.2,267.3-166.8,271z"/>
<path class="st3" d="M-219.4,231.1c-0.2,0.1-0.4,0.2-0.6,0.2c-0.7-1.1-1.5-2.3-2.2-3.5C-221.3,229-220.4,230-219.4,231.1z"/>
<path class="st0" d="M-205.9,215.7c8.1-1.5,16.2-1.5,24.3,0l-0.2,3.6l-23.1,1L-205.9,215.7z"/>
<path class="st0" d="M-259.2,266.6l0.1,1.8l-1.3,2.5C-260.2,269.4-259.8,268-259.2,266.6z"/>
</svg>
